<svg version="1.1" xmlns="http://www.w3.org/2000/svg" xmlns:xlink="http://www.w3.org/1999/xlink" width="596.32127" height="1004.4497" viewBox="0,0,596.32127,1004.4497"><g transform="translate(58.15138,322.18068)"><g data-paper-data="{&quot;isPaintingLayer&quot;:true}" fill-rule="nonzero" stroke-width="32.5" stroke-linecap="round" stroke-linejoin="miter" stroke-miterlimit="10" stroke-dasharray="" stroke-dashoffset="0" style="mix-blend-mode: normal"><path d="M519.26277,178.56274l-278.20245,471.83023l-280.32309,-470.7223l277.1521,-470.06363z" fill="none" stroke="#000000"/><path d="M241.17044,599.05137l-250.52664,-418.63442l247.64076,-419.46832l251.07164,417.24515z" fill="none" stroke="#ec1c24"/><path d="M458.89963,176.12014l-218.11932,373.72161l-219.67994,-373.72161l216.79406,-365.96189z" fill="none" stroke="#ffca18"/><path d="M52.05973,179.343l187.54676,-315.34133l188.32368,314.56102l-186.54256,323.21871z" fill="none" stroke="#0ed145"/><path d="M396.81599,180.71212l-155.12387,267.65052l-157.62861,-269.21108l155.08504,-263.86105z" fill="none" stroke="#8cfffb"/><path d="M114.93053,179.781l123.76543,-212.22352l126.80042,213.62033l-124.58452,213.20647z" fill="none" stroke="#3f48cc"/><path d="M144.88571,179.75423l94.78665,-162.14655l95.44193,163.54336l-93.5537,161.24127z" fill="none" stroke="#b83dba"/><path d="M175.34313,178.52131l64.73877,-109.1122l64.57496,111.90577l-61.61759,109.27601z" fill="#760f77" stroke="#760f77"/></g></g></svg>